<svg xmlns="http://www.w3.org/2000/svg" width="34.589" height="34.764" viewBox="0 0 34.589 34.764">
  <g id="edit" transform="translate(-927.927 -4007.877)">
    <g id="Group_1067" data-name="Group 1067" transform="translate(928.927 4008.877)">
      <g id="Group_1066" data-name="Group 1066" transform="translate(11.275)">
        <path id="Path_702" data-name="Path 702" d="M943.086,4023.563l-1.61,6.627,6.627-1.61,13.648-13.647a3.549,3.549,0,0,0,0-5.018h0a3.548,3.548,0,0,0-5.017,0Z" transform="translate(-941.476 -4008.877)" fill="none" stroke="#eee" stroke-linecap="round" stroke-linejoin="round" stroke-width="2"/>
        <line id="Line_571" data-name="Line 571" x2="2.732" y2="2.732" transform="translate(15.009 4.276)" fill="none" stroke="#eee" stroke-linecap="round" stroke-linejoin="round" stroke-width="2"/>
      </g>
      <path id="Path_703" data-name="Path 703" d="M959.018,4024.379v13.891a3.641,3.641,0,0,1-3.64,3.64h-22.65a3.641,3.641,0,0,1-3.641-3.64v-23.56a2.73,2.73,0,0,1,2.73-2.73l14.078-.1" transform="translate(-929.087 -4009.147)" fill="none" stroke="#fff" stroke-linecap="round" stroke-linejoin="round" stroke-width="2"/>
    </g>
  </g>
</svg>
