<svg xmlns="http://www.w3.org/2000/svg" width="38" height="27.848" viewBox="0 0 38 27.848">
  <g id="money" transform="translate(-927.99 -3638.416)">
    <g id="Group_1163" data-name="Group 1163">
      <g id="Group_1161" data-name="Group 1161">
        <g id="Group_1160" data-name="Group 1160">
          <rect id="Rectangle_426" data-name="Rectangle 426" width="36" height="25.848" rx="2" transform="translate(928.991 3639.416)" fill="none" stroke="#fff" stroke-linecap="round" stroke-linejoin="round" stroke-width="2"/>
        </g>
        <path id="Rectangle_427" data-name="Rectangle 427" d="M8.66,0h0a0,0,0,0,1,0,0V6.66a2,2,0,0,1-2,2H0a0,0,0,0,1,0,0v0A8.66,8.66,0,0,1,8.66,0Z" transform="translate(956.331 3656.604)" fill="none" stroke="#fff" stroke-linecap="round" stroke-linejoin="round" stroke-width="2"/>
        <path id="Rectangle_428" data-name="Rectangle 428" d="M0,0H6.66a2,2,0,0,1,2,2V8.66a0,0,0,0,1,0,0h0A8.66,8.66,0,0,1,0,0V0A0,0,0,0,1,0,0Z" transform="translate(956.331 3639.416)" fill="none" stroke="#fff" stroke-linecap="round" stroke-linejoin="round" stroke-width="2"/>
        <path id="Rectangle_429" data-name="Rectangle 429" d="M0,0H6.66a2,2,0,0,1,2,2V8.66a0,0,0,0,1,0,0h0A8.66,8.66,0,0,1,0,0V0A0,0,0,0,1,0,0Z" transform="translate(937.65 3665.264) rotate(180)" fill="none" stroke="#fff" stroke-linecap="round" stroke-linejoin="round" stroke-width="2"/>
        <path id="Rectangle_430" data-name="Rectangle 430" d="M8.66,0h0a0,0,0,0,1,0,0V6.66a2,2,0,0,1-2,2H0a0,0,0,0,1,0,0v0A8.66,8.66,0,0,1,8.66,0Z" transform="translate(937.65 3648.075) rotate(180)" fill="none" stroke="#fff" stroke-linecap="round" stroke-linejoin="round" stroke-width="2"/>
      </g>
      <g id="Group_1162" data-name="Group 1162">
        <path id="Path_782" data-name="Path 782" d="M946.441,3652.34H946.2a3.206,3.206,0,0,1-3.206-3.206h0a3.205,3.205,0,0,1,3.206-3.205h3.432" fill="none" stroke="#eee" stroke-linecap="round" stroke-linejoin="round" stroke-width="2"/>
        <path id="Path_783" data-name="Path 783" d="M946.441,3652.34h1.041a3.2,3.2,0,0,1,3.205,3.2h0a3.205,3.205,0,0,1-3.205,3.205h-3.433" fill="none" stroke="#eee" stroke-linecap="round" stroke-linejoin="round" stroke-width="2"/>
      </g>
    </g>
  </g>
</svg>
