<svg xmlns="http://www.w3.org/2000/svg" width="26.973" height="23.93" viewBox="0 0 26.973 23.93">
  <g id="users" transform="translate(-738.109 -1197.404)">
    <g id="Group_1717" data-name="Group 1717" transform="translate(739.109 1198.404)">
      <circle id="Ellipse_248" data-name="Ellipse 248" cx="4.777" cy="4.777" r="4.777" transform="translate(11.854 5.096)" fill="none" stroke="#fff" stroke-linecap="round" stroke-linejoin="round" stroke-width="2"/>
      <path id="Path_1099" data-name="Path 1099" d="M768.937,1227.977h0a7.279,7.279,0,0,0-7.279-7.278h-2.276a7.278,7.278,0,0,0-7.278,7.278h0" transform="translate(-743.964 -1206.047)" fill="none" stroke="#fff" stroke-linecap="round" stroke-linejoin="round" stroke-width="2"/>
      <circle id="Ellipse_249" data-name="Ellipse 249" cx="3.676" cy="3.676" r="3.676" transform="translate(2.858)" fill="none" stroke="#fff" stroke-linecap="round" stroke-linejoin="round" stroke-width="2"/>
      <path id="Path_1100" data-name="Path 1100" d="M747.07,1209.593h-1.751a5.6,5.6,0,0,0-5.6,5.6h0" transform="translate(-739.718 -1202.24)" fill="none" stroke="#fff" stroke-linecap="round" stroke-linejoin="round" stroke-width="2"/>
      <path id="Path_1101" data-name="Path 1101" d="M747.3,1209.593h1.751a5.589,5.589,0,0,1,4.255,1.958" transform="translate(-742.318 -1202.24)" fill="none" stroke="#fff" stroke-linecap="round" stroke-linejoin="round" stroke-width="2"/>
    </g>
  </g>
</svg>
